<svg width="116" height="24" viewBox="0 0 116 24" fill="none" xmlns="http://www.w3.org/2000/svg">
<path d="M27.3859 4.73981C24.478 4.73981 22.7301 6.34158 22.143 9.54459H32.188C32.0999 8.11812 31.6153 6.96062 30.734 6.07209C29.853 5.18408 28.7364 4.73981 27.3859 4.73981ZM27.8703 23.8276C24.2281 23.8276 21.3644 22.714 19.2793 20.4863C17.1935 18.2585 16.1512 15.4125 16.1512 11.9467C16.1512 8.59861 17.1935 5.79552 19.2793 3.53866C21.3644 1.28232 24.0375 0.153456 27.2976 0.153456C30.8512 0.153456 33.5977 1.37652 35.5363 3.82265C37.4749 6.26843 38.444 9.54459 38.444 13.6503H22.0549C22.2897 15.4268 22.892 16.8027 23.8612 17.7781C24.8304 18.7541 26.1522 19.2415 27.8263 19.2415C30.0291 19.2415 31.483 18.3239 32.188 16.4896H38.0916C37.651 18.5862 36.5345 20.3334 34.7433 21.7311C32.9514 23.1289 30.6604 23.8276 27.8703 23.8276Z" fill="#1536FF"/>
<path d="M71.6405 4.91218C68.7327 4.91218 66.9849 6.51394 66.3977 9.71696H76.4427C76.3547 8.29048 75.87 7.13298 74.9886 6.24445C74.1077 5.35644 72.9912 4.91218 71.6405 4.91218ZM72.1251 24C68.4828 24 65.6192 22.8863 63.534 20.6586C61.448 18.4309 60.406 15.5849 60.406 12.1191C60.406 8.77097 61.448 5.96789 63.534 3.71103C65.6192 1.45468 68.2923 0.32582 71.5524 0.32582C75.1059 0.32582 77.8525 1.54888 79.7909 3.99501C81.7297 6.44079 82.6986 9.71696 82.6986 13.8226H66.3097C66.5443 15.5992 67.1465 16.9751 68.1158 17.9504C69.0851 18.9264 70.407 19.4138 72.0809 19.4138C74.2837 19.4138 75.7378 18.4963 76.4427 16.662H82.3462C81.9056 18.7585 80.7891 20.5058 78.9979 21.9034C77.206 23.3013 74.9152 24 72.1251 24Z" fill="#1536FF"/>
<path d="M0 23.7764V7.72645C0 3.56141 3.41795 0.172751 7.61899 0.172751H15.4158V6.64831H6.53153V23.7764H0Z" fill="#1536FF"/>
<path d="M84.0522 0.000387542V16.0503C84.0522 20.2153 87.4702 23.604 91.6712 23.604H99.4681V17.1284H90.5838V0.000387542H84.0522Z" fill="#1536FF"/>
<path d="M100.584 0.000387542V16.0503C100.584 20.2153 104.002 23.604 108.203 23.604H116V17.1284H107.116V0.000387542H100.584Z" fill="#1536FF"/>
<path d="M54.2226 23.604V7.55408C54.2226 3.38904 50.8046 0.000387542 46.6036 0.000387542H38.8068V6.47595H47.6911V23.604H54.2226Z" fill="#1536FF"/>
<path d="M60.2514 6.38379H59.92C56.7393 6.38379 54.1606 3.82724 54.1606 0.673747V0.34525H60.2514V6.38379Z" fill="#1536FF"/>
</svg>
